<?xml version="1.0" standalone="no"?>
<!DOCTYPE svg PUBLIC "-//W3C//DTD SVG 20010904//EN"
 "http://www.w3.org/TR/2001/REC-SVG-20010904/DTD/svg10.dtd">
<svg version="1.0" xmlns="http://www.w3.org/2000/svg"
 width="512.000000pt" height="512.000000pt" viewBox="0 0 512.000000 512.000000"
 preserveAspectRatio="xMidYMid meet">
<metadata>
Created by potrace 1.14, written by Peter Selinger 2001-2017
</metadata>
<g transform="translate(0.000000,512.000000) scale(0.100000,-0.100000)"
fill="#000000" stroke="none">
<path d="M3743 4944 c-56 -21 -127 -85 -153 -139 -25 -53 -34 -154 -17 -193
30 -70 90 -118 161 -127 42 -6 47 -5 57 19 16 34 1 52 -49 60 -24 3 -49 17
-67 36 -26 27 -30 39 -30 88 1 47 6 66 30 101 81 118 246 121 361 7 65 -66 84
-119 79 -226 -5 -115 -54 -231 -130 -312 l-25 -27 -60 40 c-139 92 -336 167
-505 193 -89 13 -330 14 -390 1 -16 -3 -39 -8 -50 -9 -47 -9 -85 -20 -170 -48
-373 -126 -660 -413 -794 -791 -33 -94 -36 -107 -56 -232 -12 -77 -13 -332 -1
-385 3 -14 11 -49 17 -78 63 -307 258 -593 536 -785 149 -104 408 -200 557
-206 11 -1 17 -3 14 -6 -2 -3 -254 -6 -559 -8 -572 -4 -599 -5 -694 -46 -11
-5 -38 -17 -60 -26 -105 -46 -256 -170 -314 -260 -14 -22 -30 -45 -36 -51 -5
-6 -21 -35 -34 -65 -13 -30 -27 -61 -31 -69 -11 -22 -39 -139 -44 -185 -2 -22
-5 -106 -5 -187 l-1 -148 -292 0 c-273 0 -295 -2 -318 -20 l-25 -19 -3 -299
-3 -300 23 -27 c21 -24 31 -27 83 -28 112 -1 157 18 191 80 19 33 34 35 34 3
0 -27 49 -80 88 -97 27 -11 127 -14 545 -14 282 0 534 3 560 6 138 17 265 82
372 190 95 95 147 197 179 350 2 11 4 -92 5 -228 1 -260 7 -295 48 -311 28
-11 1156 -8 1185 3 15 6 32 19 37 30 16 28 13 146 -3 185 -17 40 -68 81 -113
91 l-33 7 0 728 0 728 37 7 c100 18 253 102 344 187 104 98 167 195 213 323
44 127 49 183 43 565 -4 310 -7 366 -25 445 -60 265 -197 505 -384 674 -43 38
-45 44 -20 69 50 50 110 160 132 242 20 74 22 202 3 257 -34 99 -100 175 -192
219 -69 33 -185 42 -248 18z"/>
</g>
</svg>
